<svg height="457pt" viewBox="0 0 457.74903 457" width="457pt" xmlns="http://www.w3.org/2000/svg"><path d="m201.777344 210.546875c11.453125.015625 20.738281 9.296875 20.75 20.75 0 4.417969 3.582031 8 8 8 4.417968 0 8-3.582031 8-8-.023438-17.117187-11.847656-31.957031-28.527344-35.808594v-9.421875c0-4.421875-3.582031-8-8-8s-8 3.578125-8 8v9.316406c-18.355469 3.976563-30.761719 21.152344-28.765625 39.828126 2 18.675781 17.757813 32.839843 36.542969 32.839843 11.460937 0 20.75 9.289063 20.75 20.75.003906 11.460938-9.289063 20.753907-20.75 20.753907-11.460938 0-20.753906-9.292969-20.753906-20.753907 0-4.417969-3.582032-8-8-8-4.417969 0-8 3.582031-8 8 .023437 17.292969 12.082031 32.234375 28.976562 35.914063v9.351562c0 4.417969 3.582031 8 8 8s8-3.582031 8-8v-9.453125c18.21875-4.183593 30.394531-21.378906 28.289062-39.953125-2.105468-18.578125-17.820312-32.609375-36.511718-32.609375-11.382813-.113281-20.546875-9.371093-20.546875-20.75 0-11.382812 9.164062-20.640625 20.546875-20.75zm0 0"/><path d="m348.925781 25.121094c-46.445312 0-84.097656 37.652344-84.097656 84.097656 0 46.449219 37.652344 84.101562 84.097656 84.101562 46.449219 0 84.101563-37.652343 84.101563-84.101562-.054688-46.421875-37.675782-84.042969-84.101563-84.097656zm0 152.207031c-37.609375 0-68.097656-30.492187-68.097656-68.101563 0-37.609374 30.488281-68.101562 68.097656-68.101562 37.613281 0 68.101563 30.492188 68.101563 68.101562-.042969 37.59375-30.507813 68.054688-68.101563 68.101563zm0 0"/><path d="m378.546875 108.066406h-25.546875v-36.921875c0-4.417969-3.582031-8-8-8s-8 3.582031-8 8v44.425781c0 4.417969 3.277344 8.496094 7.699219 8.496094h33.851562c4.417969 0 8-3.582031 8-8 0-4.421875-3.582031-8-8-8zm0 0"/><path d="m348.925781.375c-53.800781.070312-99.507812 39.378906-107.625 92.566406l-2.976562-30.683594c-.402344-4.09375-3.851563-7.210937-7.964844-7.191406h-56.777344c-4.113281-.019531-7.5625 3.097656-7.960937 7.191406l-3.519532 36.300782c-15.402343 3.890625-30.128906 10.078125-43.691406 18.347656l-27.9375-23.167969c-3.179687-2.636719-7.839844-2.421875-10.757812.492188l-40.078125 40c-2.925781 2.917969-3.144531 7.585937-.507813 10.769531l23.1875 27.964844c-8.207031 13.5625-14.410156 28.238281-18.417968 43.574218l-36.554688 3.527344c-4.125.386719-7.2929688 3.820313-7.34375 7.960938v56.695312c.0507812 4.140625 3.21875 7.574219 7.34375 7.960938l36.472656 3.523437c3.929688 15.378907 10.148438 30.082031 18.441406 43.617188l-23.144531 27.929687c-2.632812 3.183594-2.410156 7.851563.515625 10.769532l40.082032 40c2.917968 2.914062 7.578124 3.132812 10.757812.5l27.992188-23.207032c13.578124 8.214844 28.277343 14.410156 43.640624 18.398438l3.515626 36.476562c.390624 4.128906 3.820312 7.304688 7.964843 7.375h56.777344c4.148437-.074218 7.578125-3.253906 7.960937-7.386718l3.519532-36.398438c15.402344-3.910156 30.132812-10.109375 43.691406-18.394531l27.9375 23.144531c3.179688 2.632812 7.839844 2.417969 10.757812-.5l40.078126-40c2.925781-2.917969 3.148437-7.589844.507812-10.769531l-23.191406-27.96875c8.210937-13.5625 14.414062-28.242188 18.421875-43.582031l35.851562-3.519532c4.074219-.414062 7.160157-3.871094 7.105469-7.96875v-56.695312c.054688-4.097656-3.039062-7.554688-7.117188-7.960938l-31.714843-3.074218c56.578125-8.015626 97.324219-58.410157 93.3125-115.410157s-51.414063-101.195312-108.554688-101.207031zm-64.183593 196.699219c12.449218 17.261719 19.125 38.019531 19.074218 59.300781 0 56.179688-45.78125 101.886719-102.050781 101.886719s-102.046875-45.707031-102.046875-101.886719 45.78125-101.886719 102.046875-101.886719c21.316406-.054687 42.105469 6.613281 59.410156 19.054688 6.613281 9 14.558594 16.933593 23.566407 23.535156zm102.257812 80.390625-34.289062 3.367187c-3.433594.339844-6.253907 2.859375-6.976563 6.234375-3.894531 17.449219-10.90625 34.050782-20.699219 49.011719-1.90625 2.9375-1.679687 6.777344.5625 9.472656l22.230469 26.804688-29.757813 29.699219-26.808593-22.238282c-2.714844-2.25-6.578125-2.460937-9.519531-.515625-14.898438 9.871094-31.515626 16.859375-48.992188 20.601563-3.425781.796875-5.953125 3.695312-6.28125 7.199218l-3.367188 34.964844h-42.257812l-3.371094-34.960937c-.332031-3.492188-2.878906-6.371094-6.300781-7.128907-17.472656-3.875-34.097656-10.886718-49.066406-20.695312-2.929688-1.890625-6.742188-1.664062-9.429688.554688l-26.816406 22.222656-29.757813-29.703125 22.222657-26.808594c2.253906-2.71875 2.457031-6.59375.5-9.535156-9.886719-14.871094-16.902344-31.464844-20.675781-48.917969-.789063-3.410156-3.667969-5.929688-7.148438-6.261719l-35-3.375v-42.164062l35-3.375c3.460938-.328125 6.324219-2.839844 7.101562-6.226563 3.914063-17.453125 10.945313-34.058594 20.75-49.015625 1.917969-2.933593 1.703126-6.769531-.53125-9.472656l-22.21875-26.800781 29.761719-29.703125 26.816407 22.234375c2.714843 2.25 6.582031 2.460937 9.523437.515625 14.898437-9.871094 31.515625-16.859375 48.992187-20.601563 3.402344-.714844 5.945313-3.554687 6.28125-7.015625l3.367188-34.765625h42.257812l3.371094 34.765625c.335938 3.472657 2.886719 6.320313 6.300782 7.039063 2.480468.527344 4.96875 1.132812 7.449218 1.808594.550782 11.210937 2.847656 22.265624 6.800782 32.769531-14.34375-5.941407-29.71875-8.988281-45.246094-8.957031-65.089844 0-118.046875 52.882812-118.046875 117.882812 0 65.003906 52.945312 117.890625 118.035156 117.890625 65.09375 0 118.050781-52.886719 118.050781-117.890625.027344-15.503906-3.019531-30.863281-8.964844-45.179688 10.484376 3.925782 21.515626 6.203126 32.699219 6.742188.628907 2.589844 1.210938 5.242188 1.722657 7.585938l.027343.132812c.6875 3.382812 3.5 5.917969 6.933594 6.261719l34.765625 3.375zm-38.074219-75.394532c-29.613281-.003906-57.445312-14.144531-74.910156-38.0625-.308594-.558593-.683594-1.074218-1.117187-1.542968-24.515626-35.039063-21.917969-82.292969 6.292968-114.4375 28.207032-32.140625 74.722656-40.851563 112.648438-21.089844 37.925781 19.757812 57.445312 62.871094 47.265625 104.40625-10.175781 41.539062-47.417969 70.742188-90.179688 70.730469zm0 0"/></svg>